<svg width="67" height="58" viewBox="0 0 67 58" fill="none" xmlns="http://www.w3.org/2000/svg">
<g id="github" filter="url(#filter0_d_1_66)">
<path d="M23.931 45.7027C23.931 45.9358 23.663 46.1223 23.325 46.1223C22.9403 46.1573 22.6723 45.9708 22.6723 45.7027C22.6723 45.4696 22.9403 45.2831 23.2783 45.2831C23.628 45.2482 23.931 45.4347 23.931 45.7027ZM20.3062 45.1782C20.2247 45.4113 20.4578 45.6794 20.8074 45.7494C21.1105 45.8659 21.4601 45.7494 21.53 45.5162C21.6 45.2831 21.3785 45.0151 21.0289 44.9102C20.7258 44.8286 20.3878 44.9451 20.3062 45.1782ZM25.4579 44.9801C25.1199 45.0617 24.8868 45.2831 24.9217 45.5512C24.9567 45.7843 25.2597 45.9358 25.6094 45.8542C25.9474 45.7727 26.1805 45.5512 26.1455 45.3181C26.1106 45.0967 25.7959 44.9451 25.4579 44.9801ZM33.127 0.317154C16.9612 0.317154 4.59496 12.5901 4.59496 28.756C4.59496 41.6817 12.7303 52.7425 24.3506 56.6354C25.8425 56.9034 26.367 55.9827 26.367 55.2251C26.367 54.5024 26.332 50.5164 26.332 48.0687C26.332 48.0687 18.1733 49.817 16.46 44.5955C16.46 44.5955 15.1313 41.2038 13.2198 40.3297C13.2198 40.3297 10.5508 38.4998 13.4063 38.5347C13.4063 38.5347 16.3085 38.7679 17.9053 41.5418C20.4578 46.0407 24.7352 44.747 26.4019 43.9778C26.67 42.1129 27.4276 40.8192 28.2668 40.0499C21.7515 39.3273 15.1779 38.3832 15.1779 27.1709C15.1779 23.9657 16.0637 22.3572 17.9286 20.3059C17.6255 19.5483 16.6348 16.4247 18.2316 12.392C20.6676 11.6344 26.2737 15.5389 26.2737 15.5389C28.6048 14.8862 31.1107 14.5482 33.5932 14.5482C36.0758 14.5482 38.5817 14.8862 40.9127 15.5389C40.9127 15.5389 46.5189 11.6228 48.9549 12.392C50.5516 16.4364 49.5609 19.5483 49.2579 20.3059C51.1227 22.3689 52.265 23.9773 52.265 27.1709C52.265 38.4182 45.4 39.3156 38.8847 40.0499C39.957 40.9707 40.8661 42.719 40.8661 45.458C40.8661 49.3858 40.8312 54.246 40.8312 55.2018C40.8312 55.9594 41.3673 56.8801 42.8475 56.6121C54.5028 52.7425 62.405 41.6817 62.405 28.756C62.405 12.5901 49.2929 0.317154 33.127 0.317154ZM15.9239 40.5161C15.7723 40.6327 15.8073 40.9008 16.0055 41.1222C16.1919 41.3087 16.46 41.3903 16.6115 41.2388C16.763 41.1222 16.7281 40.8541 16.5299 40.6327C16.3435 40.4462 16.0754 40.3646 15.9239 40.5161ZM14.6651 39.5721C14.5835 39.7236 14.7001 39.9101 14.9332 40.0266C15.1197 40.1432 15.3528 40.1082 15.4343 39.945C15.5159 39.7935 15.3994 39.607 15.1663 39.4905C14.9332 39.4205 14.7467 39.4555 14.6651 39.5721ZM18.4414 43.7213C18.2549 43.8729 18.3249 44.2225 18.5929 44.444C18.861 44.712 19.199 44.747 19.3505 44.5605C19.502 44.409 19.4321 44.0593 19.199 43.8379C18.9426 43.5698 18.5929 43.5349 18.4414 43.7213ZM17.1127 42.008C16.9262 42.1246 16.9262 42.4276 17.1127 42.6957C17.2992 42.9637 17.6139 43.0803 17.7654 42.9637C17.9519 42.8122 17.9519 42.5092 17.7654 42.2411C17.6022 41.973 17.2992 41.8565 17.1127 42.008Z" fill="white"/>
<path d="M13.4468 38.0364C13.4466 38.0364 13.4464 38.0364 13.4063 38.5347L13.4464 38.0364L13.4294 38.035L13.4125 38.0348C13.0337 38.0301 12.7191 38.0556 12.465 38.1149C12.2176 38.1725 11.975 38.2743 11.8024 38.4643C11.6094 38.6767 11.5615 38.9347 11.5988 39.1666C11.6325 39.3761 11.7329 39.5602 11.8297 39.7016C12.0252 39.9871 12.3135 40.2505 12.5277 40.4287C12.6392 40.5214 12.7399 40.5986 12.813 40.6528C12.8496 40.6799 12.8797 40.7016 12.901 40.7167L12.9263 40.7345L12.9336 40.7396L12.9358 40.7412L12.9366 40.7417L12.9369 40.7419C12.937 40.742 12.9371 40.742 13.2198 40.3297L12.9371 40.742L12.9727 40.7664L13.0119 40.7844C13.8174 41.1527 14.5613 42.0979 15.1273 43.0466C15.402 43.5068 15.6199 43.9423 15.7693 44.2629C15.8438 44.4229 15.9008 44.5535 15.9389 44.6433C15.9579 44.6882 15.9722 44.7228 15.9815 44.7457L15.9899 44.7665C16.9476 47.6591 19.6839 48.5672 21.9909 48.7879C23.1611 48.8999 24.2697 48.8421 25.0822 48.7576C25.3722 48.7275 25.6258 48.6938 25.8326 48.6628C25.8347 49.7871 25.8421 51.1196 25.8495 52.2969C25.8521 52.7104 25.8547 53.1044 25.8571 53.4636C25.8627 54.3162 25.867 54.9723 25.867 55.2251C25.867 55.5002 25.7705 55.7718 25.5802 55.9464C25.4083 56.1041 25.0843 56.2515 24.4737 56.1493C13.078 52.3146 5.09496 41.4553 5.09496 28.756C5.09496 12.8684 17.2352 0.817154 33.127 0.817154C49.036 0.817154 61.905 12.8851 61.905 28.756C61.905 41.4622 54.1483 52.3166 42.7248 56.1259C42.1208 56.228 41.7957 56.0815 41.6214 55.9223C41.4288 55.7464 41.3312 55.474 41.3312 55.2018C41.3312 54.8876 41.3349 54.1491 41.34 53.1582C41.3427 52.6471 41.3457 52.0687 41.3486 51.4468C41.3574 49.6211 41.3661 47.4231 41.3661 45.458C41.3661 43.2037 40.7725 41.5425 39.9264 40.4336C42.8655 40.0851 45.9162 39.5879 48.2994 37.9662C51.0067 36.1238 52.765 32.9051 52.765 27.1709C52.765 25.5088 52.4665 24.2313 51.9098 23.0945C51.3986 22.0505 50.68 21.1481 49.831 20.1957C50.2232 19.0424 50.9231 16.0157 49.4199 12.2084L49.3325 11.9869L49.1054 11.9152C48.348 11.676 47.419 11.8142 46.5277 12.08C45.6174 12.3516 44.6571 12.7845 43.7905 13.2329C42.9212 13.6828 42.1316 14.156 41.5602 14.516C41.2742 14.6962 41.0419 14.8487 40.8807 14.9564C40.86 14.9702 40.8406 14.9832 40.8223 14.9955C38.5104 14.3707 36.0403 14.0482 33.5932 14.0482C31.146 14.0482 28.6757 14.3708 26.3638 14.9956C26.3455 14.9833 26.326 14.9703 26.3053 14.9565C26.1441 14.8491 25.9118 14.6971 25.6258 14.5173C25.0544 14.1583 24.2649 13.6862 23.3957 13.2371C22.5291 12.7894 21.5691 12.3571 20.6591 12.085C19.768 11.8187 18.8398 11.6792 18.0831 11.9146L17.8548 11.9856L17.7667 12.2079C16.2632 16.0051 16.9633 19.0407 17.3556 20.1956C16.5061 21.1529 15.8456 22.0574 15.3945 23.1085C14.9063 24.246 14.6779 25.5204 14.6779 27.1709C14.6779 32.88 16.3582 36.1018 18.9916 37.9531C21.3173 39.5881 24.3146 40.0916 27.2503 40.4376C26.6603 41.2311 26.1823 42.2939 25.9508 43.6305C25.1322 43.9761 23.864 44.3566 22.5303 44.2373C21.0925 44.1088 19.5332 43.3979 18.3402 41.2951L18.3386 41.2924C17.4743 39.7909 16.2547 38.9766 15.2575 38.54C14.7596 38.322 14.3147 38.197 13.9919 38.1261C13.8303 38.0907 13.6985 38.0686 13.6049 38.0552C13.5581 38.0485 13.5208 38.044 13.4941 38.041L13.4619 38.0377L13.452 38.0368L13.4487 38.0365L13.4474 38.0364L13.4468 38.0364ZM14.9943 39.7081C15.0264 39.6522 15.0717 39.6222 15.1077 39.6076L15.0441 39.7349L15.0381 39.7469L15.0278 39.7674L14.979 39.7411C14.9815 39.7345 14.9843 39.7279 14.9873 39.7215C14.9884 39.7193 14.9894 39.717 14.9906 39.7148C14.9918 39.7125 14.993 39.7103 14.9943 39.7081ZM14.9667 39.7832L15.0061 39.8108L14.9649 39.8933C14.9632 39.8844 14.9619 39.8748 14.9611 39.8645C14.959 39.8375 14.961 39.8099 14.9667 39.7832ZM15.0747 39.8588C15.0651 39.8725 15.0551 39.8843 15.0451 39.8944L15.0591 39.8478L15.0747 39.8588ZM15.1138 39.6653L15.1311 39.6079C15.1323 39.6129 15.1335 39.6182 15.1346 39.6238C15.1362 39.6327 15.1376 39.6423 15.1383 39.6526C15.1395 39.6679 15.1394 39.6834 15.138 39.6988C15.1357 39.7252 15.1298 39.7513 15.1204 39.776C15.1191 39.7794 15.1178 39.7827 15.1164 39.7861C15.1131 39.7939 15.1094 39.8016 15.1053 39.8091L15.0782 39.7945L15.0755 39.7931L15.0827 39.7692L15.0862 39.7575L15.1138 39.6653Z" stroke="white"/>
</g>
<defs>
<filter id="filter0_d_1_66" x="0.594955" y="0.317154" width="65.8101" height="64.3657" filterUnits="userSpaceOnUse" color-interpolation-filters="sRGB">
<feFlood flood-opacity="0" result="BackgroundImageFix"/>
<feColorMatrix in="SourceAlpha" type="matrix" values="0 0 0 0 0 0 0 0 0 0 0 0 0 0 0 0 0 0 127 0" result="hardAlpha"/>
<feOffset dy="4"/>
<feGaussianBlur stdDeviation="2"/>
<feComposite in2="hardAlpha" operator="out"/>
<feColorMatrix type="matrix" values="0 0 0 0 0 0 0 0 0 0 0 0 0 0 0 0 0 0 0.25 0"/>
<feBlend mode="normal" in2="BackgroundImageFix" result="effect1_dropShadow_1_66"/>
<feBlend mode="normal" in="SourceGraphic" in2="effect1_dropShadow_1_66" result="shape"/>
</filter>
</defs>
</svg>
