<svg width="44" height="39" viewBox="0 0 44 39" fill="none" xmlns="http://www.w3.org/2000/svg">
<g filter="url(#filter0_d_1_45)">
<path d="M39.783 3.23111L34.3851 28.6891C33.9779 30.4858 32.9159 30.933 31.4067 30.0865L23.1821 24.0255L19.2135 27.8426C18.7743 28.2818 18.407 28.6491 17.5606 28.6491L18.1515 20.2723L33.395 6.4972C34.0577 5.90627 33.2512 5.57886 32.3649 6.16979L13.5202 18.0363L5.40734 15.4969C3.64264 14.9459 3.6107 13.7321 5.77465 12.8856L37.5073 0.659759C38.9765 0.108755 40.2621 0.987167 39.783 3.23111Z" fill="white"/>
<path d="M39.294 3.12671L39.2939 3.1274L33.8975 28.5785C33.8972 28.5797 33.897 28.5808 33.8967 28.5819C33.7069 29.4165 33.3968 29.7893 33.1015 29.9242C32.8126 30.0561 32.359 30.0412 31.6777 29.6651L23.4787 23.623L23.1393 23.3729L22.8355 23.6651L18.8669 27.4822L18.8668 27.4822L18.8599 27.4891C18.6321 27.7169 18.4753 27.8698 18.2886 27.9783C18.2326 28.0107 18.1718 28.0404 18.103 28.0655L18.6361 20.5083L33.7277 6.8704C33.7281 6.87003 33.7286 6.86965 33.729 6.86928C33.927 6.69245 34.1268 6.4425 34.1379 6.13153C34.1518 5.74369 33.8797 5.5088 33.6288 5.41934C33.3944 5.33579 33.1276 5.34519 32.8821 5.40099C32.6291 5.45853 32.3587 5.57393 32.0932 5.75L13.4491 17.4902L5.5567 15.0198L5.55636 15.0197C5.15739 14.8951 4.9017 14.746 4.75858 14.6114C4.6228 14.4836 4.61148 14.3955 4.61584 14.3458C4.62162 14.2799 4.66871 14.1407 4.88692 13.9483C5.10233 13.7583 5.44857 13.5502 5.95567 13.3517C5.95605 13.3516 5.95642 13.3514 5.9568 13.3513L37.6828 1.12792C37.6835 1.12767 37.6842 1.12741 37.6849 1.12716C38.3013 0.896614 38.7647 1.00155 39.0279 1.25646C39.2985 1.51861 39.5154 2.08999 39.294 3.12671Z" stroke="white"/>
</g>
<defs>
<filter id="filter0_d_1_45" x="0.115065" y="0.5" width="43.7699" height="38" filterUnits="userSpaceOnUse" color-interpolation-filters="sRGB">
<feFlood flood-opacity="0" result="BackgroundImageFix"/>
<feColorMatrix in="SourceAlpha" type="matrix" values="0 0 0 0 0 0 0 0 0 0 0 0 0 0 0 0 0 0 127 0" result="hardAlpha"/>
<feOffset dy="4"/>
<feGaussianBlur stdDeviation="2"/>
<feComposite in2="hardAlpha" operator="out"/>
<feColorMatrix type="matrix" values="0 0 0 0 0 0 0 0 0 0 0 0 0 0 0 0 0 0 0.25 0"/>
<feBlend mode="normal" in2="BackgroundImageFix" result="effect1_dropShadow_1_45"/>
<feBlend mode="normal" in="SourceGraphic" in2="effect1_dropShadow_1_45" result="shape"/>
</filter>
</defs>
</svg>
