<svg width="30" height="31" viewBox="0 0 30 31" fill="none" xmlns="http://www.w3.org/2000/svg">
<path d="M19.6044 0.5H10.3956C1.99213 0.5 0 2.49213 0 10.8956V20.1044C0 28.5079 1.99213 30.5 10.3956 30.5H19.6044C28.0079 30.5 30 28.5079 30 20.1044V10.8956C30 2.49213 27.9882 0.5 19.6044 0.5ZM24.2186 21.9006H22.0409C21.2159 21.9006 20.9618 21.2462 19.4778 19.7425C18.1888 18.4929 17.6179 18.3269 17.3001 18.3269C16.851 18.3269 16.7235 18.4535 16.7235 19.0694V21.0372C16.7235 21.565 16.5576 21.8818 15.1608 21.8818C12.8508 21.8818 10.2878 20.485 8.49067 17.8826C5.78045 14.069 5.0389 11.2125 5.0389 10.6219C5.0389 10.3041 5.16546 10.0069 5.77576 10.0069H7.95819C8.51036 10.0069 8.72035 10.2609 8.93503 10.8516C10.0141 13.9668 11.8112 16.6957 12.5527 16.6957C12.8265 16.6957 12.953 16.5692 12.953 15.8708V12.6534C12.8696 11.1694 12.0887 11.0419 12.0887 10.515C12.0887 10.2609 12.2987 10.0069 12.6352 10.0069H16.0673C16.5314 10.0069 16.702 10.2609 16.702 10.8075V15.148C16.702 15.6167 16.912 15.7826 17.0385 15.7826C17.3123 15.7826 17.5466 15.6167 18.0538 15.1086C19.6213 13.3508 20.7444 10.6406 20.7444 10.6406C20.8906 10.3228 21.1447 10.0256 21.6968 10.0256H23.8793C24.5336 10.0256 24.6799 10.3622 24.5336 10.8309C24.2599 12.1003 21.589 15.8698 21.589 15.8698C21.3593 16.2504 21.2712 16.4164 21.589 16.8411C21.8234 17.1589 22.5855 17.8179 23.0927 18.4085C24.0255 19.4678 24.7427 20.3566 24.9339 20.9715C25.1486 21.5818 24.8317 21.8996 24.2158 21.8996L24.2186 21.9006Z" fill="white"/>
</svg>
